<?xml version="1.0" encoding="UTF-8" standalone="no"?><!DOCTYPE svg PUBLIC "-//W3C//DTD SVG 1.1//EN" "http://www.w3.org/Graphics/SVG/1.1/DTD/svg11.dtd"><svg width="100%" height="100%" viewBox="0 0 420 420" version="1.1" xmlns="http://www.w3.org/2000/svg" xmlns:xlink="http://www.w3.org/1999/xlink" xml:space="preserve" xmlns:serif="http://www.serif.com/" style="fill-rule:evenodd;clip-rule:evenodd;stroke-linejoin:round;stroke-miterlimit:2;"><rect id="kapesnik" x="0" y="0" width="419.528" height="419.528" style="fill:none;"/><g><path d="M180.689,120.678c0.005,0.158 0.03,0.864 0.078,1.172c0.045,0.287 0.129,0.503 0.194,0.628c0.416,0.799 1.079,0.897 1.59,0.82c0.819,-0.124 1.383,-0.889 1.259,-1.707c-0.017,-0.114 -0.047,-0.223 -0.088,-0.326c-0.012,-0.255 -0.044,-0.877 -0.052,-0.932c-0.149,-1.123 -0.612,-2.588 -1.374,-3.457c-0.687,-0.782 -1.563,-1.131 -2.49,-1.342c-0.33,-0.075 -0.664,-0.132 -0.981,-0.218c-0.199,-0.054 -0.404,-0.094 -0.54,-0.264c-0.233,-0.29 -0.287,-0.767 -0.28,-1.525c0.037,0.003 0.071,0.008 0.103,0.013c0.574,0.091 1.236,0.309 1.909,0.535c0.976,0.327 1.97,0.672 2.807,0.829c0.828,0.156 1.553,0.127 2.102,-0.07c1.76,-0.63 3.099,-2.295 4.378,-3.991c0.875,-1.162 1.672,-2.39 2.907,-2.698c0.316,-0.079 0.688,0.057 1.063,0.173c0.664,0.205 1.318,0.481 1.837,0.629c1.517,0.436 4.082,0.863 6.354,1.467c1.305,0.347 2.51,0.731 3.248,1.262c0.755,0.544 1.299,1.3 1.877,2.025c0.778,0.976 1.599,1.91 2.708,2.556c0.841,0.491 3.177,0.921 5.008,1.395c0.42,0.109 0.955,0.308 1.226,0.413c0.17,0.98 -0.333,2.042 -0.842,3.115c-0.804,1.692 -1.779,3.38 -2.068,4.823c-0.162,0.812 0.365,1.603 1.177,1.765c0.812,0.163 1.603,-0.365 1.765,-1.176c0.307,-1.535 1.561,-3.352 2.29,-5.15c0.657,-1.62 0.93,-3.231 0.431,-4.683c-0.11,-0.321 -0.319,-0.648 -0.668,-0.939c-0.35,-0.291 -0.939,-0.585 -1.683,-0.823c-1.065,-0.339 -2.527,-0.623 -3.728,-0.909c-0.598,-0.143 -1.118,-0.26 -1.396,-0.422c-0.781,-0.456 -1.326,-1.148 -1.874,-1.836c-0.749,-0.939 -1.491,-1.883 -2.47,-2.588c-0.968,-0.697 -2.519,-1.273 -4.23,-1.727c-2.251,-0.599 -4.793,-1.019 -6.297,-1.451c-0.625,-0.18 -1.447,-0.542 -2.247,-0.745c-0.781,-0.198 -1.55,-0.25 -2.209,-0.085c-1.852,0.463 -3.261,2.061 -4.575,3.803c-0.911,1.208 -1.741,2.524 -2.994,2.973c-0.074,0.026 -0.166,-0.002 -0.27,-0.014c-0.289,-0.032 -0.611,-0.11 -0.951,-0.208c-0.85,-0.242 -1.79,-0.597 -2.664,-0.86c-0.872,-0.264 -1.695,-0.434 -2.361,-0.423c-0.736,0.011 -1.343,0.224 -1.805,0.596c-0.306,0.246 -0.536,0.579 -0.677,0.976c-0.157,0.444 -0.176,1.013 -0.18,1.4c-0.021,1.903 0.479,2.964 1.09,3.628c0.474,0.515 1.05,0.829 1.691,1.032c0.43,0.137 0.894,0.218 1.352,0.322c0.323,0.074 0.662,0.123 0.901,0.395c0.396,0.451 0.567,1.23 0.649,1.824Zm2.079,-0.297l0.045,0.015l-0.01,-0.004l-0.035,-0.011Zm0,-0c-0.191,-0.062 -0.386,-0.08 -0.586,-0.059c0.203,-0.02 0.401,0.002 0.586,0.059Zm-0.589,-0.059c-0.025,0.002 -0.051,0.006 -0.076,0.009l0.076,-0.009Z"/><path d="M188.081,153.64c0.451,-0.643 0.329,-1.535 -0.293,-2.032c-0.268,-0.214 -0.568,-0.318 -0.895,-0.328c-0.284,-0.009 -0.689,0.044 -1.079,0.408c-0.081,0.076 -0.218,0.224 -0.338,0.446c-0.097,0.178 -0.238,0.526 -0.244,0.541c-0.223,0.567 -0.461,1.129 -0.692,1.694c-0.049,0.12 -0.098,0.24 -0.146,0.36c-1.01,2.521 -2.24,5.788 -1.247,8.515c0.695,1.908 2.228,2.946 4.092,3.353c2.328,0.509 5.205,-0.05 6.978,-0.78c0.766,-0.315 1.132,-1.193 0.816,-1.958c-0.315,-0.766 -1.192,-1.131 -1.958,-0.816c-1.117,0.46 -2.811,0.847 -4.363,0.739c-1.184,-0.082 -2.329,-0.42 -2.746,-1.565c-0.336,-0.924 -0.23,-1.935 0.006,-2.929c0.288,-1.212 0.789,-2.401 1.207,-3.443c0.046,-0.114 0.092,-0.229 0.139,-0.343c0.235,-0.577 0.478,-1.15 0.706,-1.729l0.057,-0.133Zm-2.102,0.36c0.372,0.275 0.809,0.389 1.314,0.214c-0.434,0.133 -0.922,0.068 -1.314,-0.214Z"/><path d="M206.337,168.785c-0.129,0.207 -0.385,0.192 -0.653,0.188c-0.431,-0.008 -0.909,-0.116 -1.406,-0.275c-2.14,-0.685 -4.569,-2.318 -5.254,-3.14c-5.893,-7.072 -11.648,-14.505 -15.391,-22.993c-0.63,-1.429 -1.26,-3.37 -1.342,-5.242c-0.068,-1.558 0.226,-3.09 1.494,-4.041c0.662,-0.497 0.797,-1.438 0.3,-2.1c-0.497,-0.663 -1.438,-0.797 -2.1,-0.3c-1.703,1.277 -2.492,3.121 -2.665,5.156c-0.226,2.657 0.648,5.65 1.568,7.737c3.856,8.745 9.76,16.418 15.832,23.704c1.027,1.233 5.061,3.957 8.053,4.417c1.815,0.279 3.292,-0.214 4.108,-1.52c0.439,-0.702 0.225,-1.629 -0.477,-2.067c-0.702,-0.439 -1.628,-0.226 -2.067,0.476Z"/><path d="M196.177,148.548c-0.417,-0.471 -3.681,-4.158 -4.401,-5.067c-1.5,-1.891 -5.812,-8.464 -7.392,-13.94c-0.384,-1.332 -0.607,-2.59 -0.542,-3.679c0.071,-1.197 0.541,-2.147 1.748,-2.53c0.789,-0.251 1.226,-1.096 0.975,-1.885c-0.251,-0.789 -1.096,-1.225 -1.884,-0.974c-3.076,0.978 -4.139,3.554 -3.787,6.924c0.654,6.248 6.637,15.56 8.531,17.948c0.846,1.067 4.048,4.89 4.912,5.587c0.666,0.538 1.277,0.446 1.5,0.389c0.802,-0.205 1.287,-1.023 1.082,-1.825c-0.108,-0.422 -0.386,-0.757 -0.742,-0.948Z"/><path d="M201.599,142.159c-0.303,-0.406 -1.927,-2.591 -2.025,-2.728c-0.701,-0.976 -1.395,-1.955 -2.077,-2.944c-0.972,-1.41 -1.877,-2.864 -2.832,-4.284c-1.168,-1.737 -4.704,-5.798 -6.359,-9.504c-0.382,-0.855 -0.661,-1.685 -0.744,-2.45c-0.087,-0.797 0.055,-1.512 0.704,-1.996c1.046,-0.779 1.953,-0.883 3.191,-0.552c0.8,0.213 1.622,-0.263 1.835,-1.063c0.214,-0.8 -0.262,-1.623 -1.062,-1.836c-2.237,-0.597 -3.867,-0.363 -5.757,1.046c-1.89,1.409 -2.297,3.537 -1.656,5.991c1.134,4.339 5.915,9.891 7.358,12.038c0.962,1.43 1.874,2.894 2.852,4.313c0.693,1.004 1.398,1.999 2.109,2.991c0.13,0.18 2.036,2.864 2.536,3.301c0.911,0.798 1.754,0.314 2.035,0.086c0.643,-0.522 0.741,-1.467 0.219,-2.11c-0.096,-0.118 -0.207,-0.218 -0.327,-0.299Zm-1.188,-0.214c-0.193,0.044 -0.365,0.126 -0.516,0.235c0.159,-0.113 0.335,-0.191 0.516,-0.235Z"/><path d="M208.84,136.036c-0.12,-0.188 -0.268,-0.415 -0.344,-0.51c-0.319,-0.401 -0.636,-0.803 -0.953,-1.205c-1.09,-1.385 -2.19,-2.761 -3.248,-4.17c-0.929,-1.237 -6.845,-7.881 -8.442,-12.527c-0.214,-0.623 -0.349,-1.196 -0.33,-1.696c0.014,-0.374 0.163,-0.675 0.54,-0.829c1.102,-0.451 2.276,-0.122 3.399,0.455c2.117,1.088 4.048,3.125 5.215,4.522c6.585,7.889 11.271,17.004 19.394,23.581c0.644,0.521 1.589,0.421 2.11,-0.222c0.521,-0.644 0.421,-1.589 -0.222,-2.11c-7.969,-6.451 -12.519,-15.433 -18.979,-23.171c-1.368,-1.639 -3.664,-3.993 -6.147,-5.268c-1.943,-0.998 -4,-1.343 -5.906,-0.564c-2.409,0.986 -2.934,3.303 -1.911,6.278c1.696,4.931 7.894,12.04 8.88,13.353c1.072,1.427 2.186,2.822 3.29,4.224c0.321,0.406 0.641,0.814 0.964,1.219c0.134,0.167 0.355,0.578 0.498,0.764c0.233,0.302 0.484,0.458 0.635,0.53c0.658,0.313 1.197,0.153 1.62,-0.191c0.205,-0.166 0.571,-0.501 0.572,-1.237c-0,-0.506 -0.251,-0.954 -0.635,-1.226Zm-2.363,1.148c-0.002,0.025 -0.002,0.05 -0.002,0.076l0.002,-0.076Zm0.004,-0.067l-0.003,0.054l0.004,-0.059l-0.001,0.005Zm0.009,-0.067l-0.003,0.018l0.003,-0.02l-0,0.002Z"/><path d="M219.088,128.902l1.404,-0.664c0.249,0.002 0.496,0.039 0.737,0.105c0.483,0.132 0.925,0.367 1.343,0.638c3.385,2.196 5.505,5.981 5.952,9.87c0.408,3.547 0.648,7.15 -0.082,10.673c-0.721,3.48 -2.508,7.278 -2.234,10.888c0.191,2.51 1.297,5.5 2.791,8.525c2.115,4.279 4.991,8.654 6.778,11.761c0.412,0.718 1.33,0.966 2.048,0.553c0.717,-0.413 0.965,-1.33 0.552,-2.048c-1.762,-3.065 -4.603,-7.375 -6.688,-11.595c-1.305,-2.64 -2.323,-5.233 -2.49,-7.424c-0.253,-3.34 1.513,-6.831 2.18,-10.051c0.795,-3.838 0.57,-7.762 0.126,-11.625c-0.547,-4.752 -3.164,-9.361 -7.3,-12.044c-0.678,-0.44 -1.401,-0.801 -2.183,-1.015c-0.6,-0.164 -1.217,-0.235 -1.839,-0.204c-0.107,0.005 -0.462,0.066 -0.924,0.237c-0.693,0.256 -1.794,0.767 -2.372,1.239c-0.725,0.592 -0.912,1.313 -0.845,1.826c0.052,0.396 0.226,0.796 0.643,1.138c0.64,0.525 1.585,0.432 2.111,-0.208c0.142,-0.174 0.239,-0.371 0.292,-0.575Zm-0.368,-1.413l0.007,0.007l-0.003,-0.003l-0.004,-0.004Zm-0.067,-0.066l0.019,0.018l-0.013,-0.012l-0.006,-0.006Z"/><path d="M207.944,171.284c0.023,-0.191 0.008,-0.39 -0.049,-0.587c-0.205,-0.711 -0.675,-0.901 -0.903,-0.989c-0.519,-0.201 -1.118,-0.198 -1.653,0.39c-0.084,0.092 -0.188,0.228 -0.272,0.423c-0.062,0.144 -0.145,0.596 -0.132,0.789c0.067,1.024 0.46,2.095 0.754,3.065c0.584,1.929 1.307,3.811 2.01,5.699c2.176,5.848 4.449,11.647 6.928,17.374c6.265,14.478 14.987,32.057 26.073,43.996c0.563,0.607 1.513,0.642 2.12,0.079c0.606,-0.564 0.641,-1.514 0.078,-2.12c-10.866,-11.702 -19.377,-28.955 -25.518,-43.147c-2.458,-5.679 -4.712,-11.43 -6.87,-17.228c-0.681,-1.83 -1.384,-3.653 -1.95,-5.523c-0.214,-0.706 -0.53,-1.472 -0.616,-2.221Zm-0.627,1.056c-0.376,0.289 -0.773,0.331 -1.143,0.247c0.225,0.043 0.462,0.035 0.696,-0.033c0.165,-0.047 0.315,-0.12 0.447,-0.214Zm-1.54,0.111c-0.359,-0.181 -0.644,-0.505 -0.764,-0.922c0.169,0.586 0.521,0.812 0.764,0.922Z"/><path d="M190.732,167.896c0.047,-0.092 0.084,-0.191 0.111,-0.295c0.201,-0.775 -0.163,-1.181 -0.203,-1.241c-0.363,-0.538 -0.853,-0.718 -1.42,-0.651c-0.092,0.01 -0.827,0.041 -1.206,0.901c-0.104,0.236 -0.961,2.695 -1.101,3.148c-0.642,2.07 -1.323,4.127 -1.979,6.193c-2.008,6.319 -4.209,12.633 -7.316,18.502c-0.388,0.731 -0.108,1.64 0.624,2.027c0.731,0.388 1.64,0.108 2.027,-0.624c3.191,-6.027 5.462,-12.507 7.524,-18.996c0.658,-2.073 1.341,-4.137 1.985,-6.214c0.113,-0.364 0.809,-2.339 0.954,-2.75Zm-2.699,-0.036c-0.143,-0.305 -0.185,-0.66 -0.094,-1.012c-0.127,0.489 -0.012,0.824 0.094,1.012Z"/><path d="M209.94,181.332c-1.46,3.1 -2.461,8.633 -2.983,12.16c-1.614,10.913 -3.262,26.833 -9.459,36.471c-0.447,0.696 -0.245,1.625 0.451,2.073c0.696,0.448 1.625,0.246 2.073,-0.451c6.403,-9.96 8.234,-26.377 9.903,-37.653c0.486,-3.281 1.371,-8.439 2.729,-11.322c0.353,-0.748 0.031,-1.643 -0.718,-1.996c-0.749,-0.353 -1.643,-0.031 -1.996,0.718Z"/><path d="M175.208,86.976c-0.023,0.218 -0.045,0.478 -0.042,0.597c0.015,0.701 0.05,1.403 0.076,2.104c0.084,2.265 0.227,4.521 0.489,6.772c0.239,2.046 0.835,3.131 1.561,3.798c0.544,0.5 1.193,0.797 1.968,0.99c1.188,0.296 2.821,0.261 4.832,1.434c0.715,0.417 1.634,0.175 2.052,-0.54c0.417,-0.715 0.175,-1.635 -0.54,-2.052c-1.944,-1.134 -3.581,-1.38 -4.896,-1.609c-0.56,-0.097 -1.043,-0.117 -1.386,-0.432c-0.359,-0.33 -0.493,-0.925 -0.611,-1.937c-0.253,-2.172 -0.39,-4.349 -0.471,-6.535c-0.025,-0.687 -0.06,-1.373 -0.075,-2.06c-0.005,-0.204 0.079,-0.635 0.081,-0.857c0.002,-0.391 -0.105,-0.676 -0.188,-0.834c-0.303,-0.578 -0.773,-0.797 -1.281,-0.821c-0.279,-0.014 -0.767,0.001 -1.249,0.534c-0.367,0.406 -0.471,0.959 -0.32,1.448Zm2.434,0.675c-0.072,0.064 -0.148,0.12 -0.228,0.168c0.075,-0.043 0.151,-0.098 0.228,-0.168Zm0.053,-0.05l-0.044,0.041l0.034,-0.031l0.01,-0.01Z"/><path d="M198.651,102.107c0.548,-0.281 1.847,-0.82 1.957,-0.863c2.375,-0.945 4.804,-1.499 7.332,-1.825c0.821,-0.106 1.402,-0.859 1.296,-1.68c-0.106,-0.821 -0.858,-1.401 -1.68,-1.295c-2.778,0.358 -5.446,0.974 -8.056,2.012c-0.157,0.062 -2.268,0.968 -2.624,1.217c-1.227,0.858 -0.565,1.997 -0.278,2.304c0.545,0.582 1.447,0.633 2.053,0.13Zm0.513,-1.452l0.004,0.02l-0.002,-0.01l-0.002,-0.01Zm-0.323,-0.669c0.163,0.192 0.269,0.416 0.319,0.649c-0.049,-0.238 -0.153,-0.455 -0.319,-0.649Zm-0.001,-0.001c-0.016,-0.019 -0.033,-0.038 -0.051,-0.057l0.051,0.057Z"/><path d="M202.026,103.018c-0.229,-0.052 -0.474,-0.049 -0.716,0.017c-0.799,0.217 -1.271,1.041 -1.054,1.84c0.115,0.425 0.323,0.706 0.544,0.904c0.308,0.276 0.675,0.428 1.106,0.443c0.36,0.013 0.866,-0.113 1.396,-0.441c0.267,-0.166 0.57,-0.393 0.867,-0.597c0.111,-0.076 0.306,-0.188 0.345,-0.211c1.362,-0.346 2.615,-0.12 3.918,0.315c0.786,0.262 1.636,-0.164 1.898,-0.949c0.262,-0.785 -0.163,-1.636 -0.949,-1.897c-1.877,-0.626 -3.688,-0.875 -5.653,-0.365c-0.369,0.096 -0.816,0.331 -1.255,0.632l-0.447,0.309Z"/><path d="M212.924,101.389c-0.38,0.127 -0.708,0.404 -0.888,0.796c-0.308,0.67 -0.101,1.12 0.004,1.334c0.257,0.527 0.718,0.935 1.54,0.839c0.128,-0.015 0.304,-0.052 0.506,-0.148c0.129,-0.062 0.601,-0.398 0.676,-0.451c0.373,-0.204 0.748,-0.404 1.121,-0.608c0.725,-0.399 0.99,-1.312 0.591,-2.038c-0.399,-0.725 -1.311,-0.99 -2.037,-0.591c-0.38,0.209 -0.764,0.413 -1.145,0.621c-0.077,0.042 -0.234,0.151 -0.368,0.246Zm1.934,1.771c-0.022,0.093 -0.054,0.187 -0.096,0.278c0.046,-0.1 0.077,-0.193 0.096,-0.278Zm0.01,-0.047l-0.004,0.021l0.003,-0.013l0.001,-0.008Z"/><path d="M215.301,104.22c-0.587,-0.404 -1.398,-0.342 -1.916,0.184c-0.468,0.475 -0.51,0.94 -0.489,1.265c0.029,0.417 0.198,0.802 0.577,1.112c0.177,0.145 0.478,0.317 0.906,0.385c0.335,0.054 0.982,0.004 1.29,0.069c0.81,0.171 1.606,-0.348 1.777,-1.159c0.17,-0.81 -0.349,-1.606 -1.159,-1.776c-0.195,-0.041 -0.643,-0.067 -0.986,-0.08Zm0.29,2.213l-0.014,0.017l0.003,-0.003l0.011,-0.014Zm0.043,-0.051l-0.003,0.003l0.001,-0.001l0.002,-0.002Z"/><path d="M181.695,104.497c-0.623,0.042 -1.177,0.474 -1.347,1.11c-0.189,0.708 0.056,1.141 0.233,1.386c0.282,0.391 0.697,0.658 1.305,0.642c0.2,-0.006 0.523,-0.063 0.888,-0.268c0.238,-0.135 0.862,-0.559 0.963,-0.628c0.742,-0.218 1.46,-0.222 2.222,-0.095c0.816,0.136 1.59,-0.416 1.726,-1.233c0.136,-0.816 -0.416,-1.59 -1.233,-1.726c-1.254,-0.209 -2.432,-0.173 -3.654,0.203c-0.241,0.074 -0.749,0.383 -1.103,0.609Zm1.581,1.748l-0.008,0.045l0.004,-0.018l0.004,-0.027Zm0.019,-0.165l0.001,-0.034c-0.001,0.052 -0.006,0.107 -0.015,0.165l0.008,-0.057c0.002,-0.025 0.004,-0.049 0.006,-0.074Z"/><path d="M235.357,45.923c0.044,-0.031 0.086,-0.064 0.127,-0.1c0.621,-0.548 0.681,-1.497 0.133,-2.118c-0.068,-0.077 -0.999,-0.982 -2.049,-0.192c-0.138,0.104 -0.794,0.664 -0.827,0.693c-1.889,1.689 -3.588,3.622 -5.401,5.393c-3.851,3.763 -7.618,7.464 -12.066,10.527c-3.785,2.606 -8.025,4.356 -11.845,6.854c-3.358,2.195 -6.213,5.051 -9.664,7.149c-4.997,3.037 -11.246,5.557 -17.435,6.189c-5.977,0.61 -11.906,-0.548 -16.488,-4.868c-0.926,-0.873 -1.564,-1.607 -1.945,-2.263c-0.241,-0.416 -0.368,-0.765 -0.333,-1.099c0.035,-0.337 0.225,-0.632 0.47,-0.942c0.39,-0.495 0.924,-0.986 1.536,-1.528c1.925,-1.702 4.535,-3.802 6.623,-7.269c7.485,-12.425 12.09,-25.099 25.739,-32.336c13.246,-7.022 28.726,-6.779 41.161,1.579c1.95,1.311 5.066,4.903 7.266,7.193c1.125,1.171 2.074,2.028 2.59,2.303c0.093,0.049 1.149,0.547 1.914,-0.431c0.148,-0.189 0.819,-1.175 0.862,-1.232c0.421,-0.556 0.856,-1.106 1.302,-1.646c-0.072,0.472 -0.135,0.93 -0.164,1.339c-0.048,0.689 0.006,1.281 0.149,1.705c0.208,0.62 0.589,1.03 1.077,1.265c0.051,0.025 0.112,0.049 0.183,0.071c-0.47,0.406 -0.675,0.831 -0.732,1.087c-0.086,0.379 -0.037,0.726 0.113,1.043c0.138,0.291 0.404,0.638 0.812,0.976c0.409,0.337 1.019,0.717 1.643,1.106c-0.334,0.039 -0.647,0.077 -0.884,0.108c-0.724,0.096 -1.271,0.312 -1.548,0.52c-0.51,0.383 -0.705,0.871 -0.696,1.392c0.072,4.574 1.664,9.62 2.817,14.675c1.061,4.654 1.765,9.319 0.138,13.583c-0.296,0.774 0.093,1.641 0.866,1.936c0.773,0.296 1.641,-0.093 1.936,-0.866c1.836,-4.809 1.182,-10.072 -0.015,-15.32c-1.014,-4.447 -2.419,-8.879 -2.695,-12.967c0.431,-0.045 0.968,-0.1 1.359,-0.137c0.721,-0.068 1.391,-0.181 1.834,-0.351c0.765,-0.293 1.159,-0.807 1.307,-1.304c0.226,-0.76 -0.074,-1.793 -1.141,-2.665c-0.518,-0.424 -1.233,-0.865 -1.906,-1.282c0.977,-0.542 2.075,-1.151 2.646,-1.644c0.782,-0.677 0.933,-1.444 0.844,-1.946c-0.112,-0.628 -0.652,-1.414 -1.939,-1.434c-0.578,-0.009 -1.523,0.156 -2.433,0.337c-0.212,0.042 -0.455,0.085 -0.686,0.124c0.034,-0.42 0.083,-0.938 0.146,-1.341c0.188,-1.194 0.347,-2.412 0.225,-3.216c-0.111,-0.731 -0.427,-1.262 -0.838,-1.599c-0.409,-0.335 -0.878,-0.442 -1.386,-0.336c-0.248,0.052 -0.531,0.176 -0.793,0.38c-0.21,0.165 -0.421,0.41 -0.504,0.501c-1.194,1.298 -2.342,2.66 -3.407,4.066c-0.514,-0.514 -1.145,-1.202 -1.845,-1.948c-2.222,-2.369 -4.956,-5.333 -6.744,-6.535c-13.366,-8.983 -30.002,-9.287 -44.239,-1.739c-14.174,7.515 -19.132,20.535 -26.904,33.438c-2.416,4.012 -5.634,6.003 -7.366,7.824c-0.978,1.028 -1.561,2.047 -1.677,3.15c-0.158,1.503 0.565,3.369 3.204,5.858c5.246,4.946 12.007,6.368 18.851,5.669c6.631,-0.677 13.334,-3.355 18.688,-6.61c3.479,-2.114 6.362,-4.988 9.747,-7.201c3.841,-2.511 8.101,-4.274 11.905,-6.894c4.59,-3.161 8.488,-6.969 12.462,-10.852c1.781,-1.741 3.447,-3.642 5.304,-5.302l0.616,-0.52Z"/><path d="M234,94.559c-0.114,0.086 -0.402,0.297 -0.604,0.409c-0.604,0.335 -1.259,0.618 -1.632,0.842c-0.336,0.201 -0.792,0.547 -1.269,0.86c-1.21,-2.584 -2.691,-5.158 -4.597,-7.275c-2.57,-2.853 -5.238,-4.284 -7.766,-5.674c-3.306,-1.818 -6.332,-3.574 -8.266,-9.47c-0.156,-0.475 -0.916,-2.507 -1.29,-4.229c-0.106,-0.486 -0.155,-1.17 -0.17,-1.405c0.362,-0.538 0.344,-1.272 -0.092,-1.795c-0.53,-0.637 -1.476,-0.723 -2.113,-0.194c-0.449,0.374 -0.819,1.094 -0.81,2.123c0.017,1.936 1.394,5.731 1.625,6.435c1.908,5.818 4.71,8.236 7.853,10.129c2.772,1.67 5.874,2.84 8.799,6.088c1.83,2.032 3.206,4.543 4.334,7.024c-0.006,-0.014 -0.021,-0.049 -0.021,-0.049c0,-0 0.395,0.953 0.679,1.225c0.37,0.353 0.8,0.494 1.242,0.473c0.43,-0.02 0.926,-0.165 1.428,-0.419c0.71,-0.36 1.476,-0.974 1.977,-1.275c0.537,-0.322 1.638,-0.77 2.368,-1.312c0.564,-0.419 0.955,-0.913 1.134,-1.4c0.181,-0.492 0.227,-1.076 0.121,-1.746c-0.101,-0.644 -0.355,-1.412 -0.655,-2.274c-0.887,-2.554 -2.265,-6.238 1.85,-9.951c0.614,-0.554 0.663,-1.504 0.108,-2.118c-0.554,-0.615 -1.503,-0.664 -2.118,-0.109c-4.731,4.269 -4.155,8.488 -3.141,11.765c0.292,0.941 0.624,1.791 0.841,2.522c0.066,0.226 0.121,0.436 0.152,0.631c0.009,0.061 0.029,0.118 0.033,0.169Z"/><path d="M240.885,85.294c-0.23,-1.568 0.713,-3.61 2.065,-4.982c1.157,-1.174 2.702,-1.9 4.167,-0.841c0.972,0.703 1.677,1.998 2.174,3.521c0.835,2.558 1.022,5.77 0.414,8.499c-0.586,2.631 -1.874,4.875 -4.337,5.12c-0.824,0.082 -1.426,0.817 -1.344,1.641c0.082,0.824 0.817,1.426 1.641,1.344c3.745,-0.372 6.077,-3.452 6.968,-7.453c0.721,-3.237 0.5,-7.047 -0.49,-10.081c-0.719,-2.205 -1.86,-4.003 -3.268,-5.022c-2.293,-1.658 -4.723,-1.326 -6.762,0.072c-2.731,1.871 -4.61,5.805 -4.196,8.619c0.121,0.819 0.883,1.386 1.702,1.265c0.819,-0.12 1.387,-0.883 1.266,-1.702Z"/><path d="M245.577,87.394c-0.01,-0.413 -0.023,-1.243 0.018,-1.579c0.069,-0.578 0.145,-1.544 0.411,-2.384c0.075,-0.236 0.162,-0.461 0.284,-0.645c0.034,-0.052 0.042,-0.129 0.103,-0.135c0.824,-0.082 1.427,-0.818 1.345,-1.641c-0.082,-0.824 -0.817,-1.427 -1.641,-1.345c-1.242,0.124 -2.143,0.945 -2.687,2.161c-0.524,1.17 -0.688,2.751 -0.794,3.631c-0.076,0.632 -0.039,2.29 -0.013,2.521c0.138,1.197 1.209,1.33 1.336,1.343c0.061,0.007 1.633,0.01 1.668,-1.596c0.003,-0.113 -0.008,-0.224 -0.03,-0.331Z"/><path d="M232.44,130.349c1.088,-0.21 2.449,-1.049 3.796,-2.308c2.742,-2.564 5.582,-6.833 6.299,-9.003c0.26,-0.786 -0.167,-1.635 -0.954,-1.894c-0.786,-0.26 -1.635,0.167 -1.894,0.953c-0.532,1.608 -2.458,4.521 -4.482,6.722c-1.193,1.296 -2.365,2.398 -3.332,2.584c-0.813,0.156 -1.346,0.943 -1.19,1.756c0.157,0.813 0.944,1.346 1.757,1.19Z"/><path d="M254.289,58.606c0.22,0.058 0.626,0.174 0.929,0.309c1.744,0.777 4.055,2.407 5.465,3.589c0.479,0.401 0.85,0.714 0.973,0.907c3.681,5.773 4.888,12.827 5.581,19.527c1.131,10.955 -3.039,30.485 -4.974,47.142c-0.793,6.818 -1.217,13.165 -0.798,18.291c0.295,3.613 1.02,6.645 2.267,8.875c0.751,1.343 1.596,1.97 2.346,2.205c0.957,0.299 1.926,0.085 2.837,-0.65c0.787,-0.636 1.566,-1.759 2.233,-3.093c1.365,-2.728 2.354,-6.354 2.551,-7.282c2.355,-11.094 2.764,-22.891 3.37,-34.208c0.044,-0.827 -0.591,-1.534 -1.418,-1.578c-0.826,-0.044 -1.534,0.591 -1.578,1.418c-0.598,11.163 -0.986,22.801 -3.309,33.745c-0.214,1.009 -1.462,5.617 -3.107,7.949c-0.212,0.302 -0.59,0.644 -0.739,0.774c-0.12,-0.126 -0.389,-0.426 -0.568,-0.745c-1.074,-1.919 -1.641,-4.543 -1.895,-7.654c-0.405,-4.961 0.021,-11.103 0.787,-17.701c1.963,-16.885 6.126,-36.691 4.979,-47.796c-0.739,-7.155 -2.104,-14.667 -6.036,-20.832c-0.293,-0.459 -1.364,-1.48 -2.773,-2.543c-1.975,-1.491 -4.609,-3.115 -6.252,-3.543c-1.445,-0.378 -2.457,0.074 -2.946,0.813c-0.457,0.69 -0.267,1.621 0.423,2.078c0.515,0.342 1.165,0.322 1.652,0.003Z"/><path d="M274.08,82.704c2.526,0.97 5.112,2.849 7.639,5.013c4.155,3.56 8.127,7.901 11.348,10.694c11.99,10.398 24.345,20.3 36.598,30.376c9.597,7.891 20.501,16.121 29.237,25.785c8.56,9.469 15.037,20.32 15.965,33.646c0.503,7.225 -3.52,12.727 -6.243,17.565c-2.131,3.787 -3.476,7.245 -2.386,10.65c1.591,4.967 5.315,9.046 9.604,13.396c6.003,6.088 13.143,12.782 16.105,23.998c3.419,12.947 1.929,30.603 -8.849,39.872c-1.174,1.01 -5.121,4.611 -10.036,7.028c-3.106,1.527 -6.608,2.601 -10.014,2.081c-0.818,-0.125 -1.584,0.438 -1.709,1.257c-0.125,0.818 0.438,1.584 1.257,1.709c4.003,0.611 8.139,-0.559 11.79,-2.355c5.219,-2.566 9.422,-6.373 10.668,-7.445c11.616,-9.99 13.479,-28.96 9.794,-42.913c-2.61,-9.884 -8.229,-16.486 -13.711,-22.133c-5.145,-5.297 -10.201,-9.663 -12.042,-15.411c-0.502,-1.569 -0.21,-3.139 0.428,-4.78c0.744,-1.918 1.956,-3.911 3.206,-6.059c2.725,-4.679 5.593,-10.037 5.131,-16.669c-0.977,-14.026 -7.722,-25.482 -16.733,-35.449c-8.835,-9.773 -19.851,-18.109 -29.557,-26.091c-12.233,-10.059 -24.567,-19.943 -36.538,-30.325c-3.224,-2.796 -7.201,-7.141 -11.361,-10.705c-2.923,-2.504 -5.945,-4.621 -8.863,-5.665c-0.443,-0.158 -0.776,-0.114 -1.043,-0.028c-0.3,0.096 -0.605,0.267 -0.856,0.673c-0.435,0.705 -0.216,1.63 0.488,2.065c0.214,0.132 0.448,0.204 0.683,0.22Zm1.046,-0.327c0.119,-0.092 0.232,-0.214 0.335,-0.381c-0.092,0.15 -0.206,0.277 -0.335,0.381Z"/><path d="M218.318,308.536c0.077,-4.843 0.667,-9.703 1.638,-14.432c1.938,-9.45 7.533,-17.374 12.708,-25.386c5.421,-8.394 10.386,-16.883 10.808,-27.073c0.586,-14.133 -2.634,-28.459 -3.99,-42.48c-1.879,-19.435 -1.71,-39.382 0.814,-58.754c0.522,-4.009 2.156,-16.906 4.649,-25.64c0.974,-3.412 1.988,-6.175 3.229,-7.257c0.624,-0.544 0.689,-1.492 0.144,-2.116c-0.544,-0.624 -1.492,-0.689 -2.116,-0.145c-1.505,1.312 -2.961,4.557 -4.142,8.695c-2.535,8.883 -4.208,21.998 -4.739,26.075c-2.553,19.595 -2.726,39.772 -0.825,59.431c1.342,13.885 4.559,28.07 3.979,42.067c-0.399,9.64 -5.202,17.628 -10.331,25.569c-5.376,8.324 -11.114,16.594 -13.127,26.411c-1.188,5.791 -1.824,11.77 -1.69,17.687c0.006,0.279 -0.03,1.551 0.207,2.115c0.268,0.638 0.74,0.965 1.244,1.077c0.488,0.109 1.132,0.018 1.724,-0.55c0.592,-0.569 1.353,-2.166 1.538,-2.456c3.757,-5.924 9.326,-11.093 15.077,-15.022c8.734,-5.967 17.731,-11.245 25.624,-18.379c15.596,-14.097 27.747,-31.612 41.777,-47.165c12.026,-13.332 27.413,-32.646 43.103,-41.798c2.173,-1.267 6.249,-1.438 9.145,-0.467c1.189,0.399 2.2,0.959 2.589,1.866c0.381,0.888 0.046,1.988 -0.974,3.404c-1.475,2.048 -3.896,3.54 -6.591,4.793c-4.413,2.051 -9.56,3.428 -13.15,5.041c-0.755,0.339 -1.092,1.227 -0.753,1.983c0.339,0.755 1.228,1.092 1.983,0.753c3.599,-1.617 8.76,-2.999 13.184,-5.056c3.196,-1.486 6.012,-3.332 7.761,-5.761c1.864,-2.589 1.993,-4.718 1.297,-6.34c-0.687,-1.601 -2.293,-2.823 -4.392,-3.527c-3.679,-1.234 -8.851,-0.89 -11.61,0.72c-15.93,9.292 -31.609,28.844 -43.82,42.379c-13.962,15.478 -26.04,32.921 -41.561,46.949c-7.791,7.042 -16.683,12.238 -25.304,18.128c-5.677,3.878 -11.171,8.913 -15.107,14.661Z"/><path d="M286.838,260.929l0.697,-0.52c1.56,-0.73 3.342,-1.044 4.992,-1.491c4.601,-1.248 9.249,-2.219 13.961,-2.947c12.875,-1.987 29.175,-5.061 41.246,1.505c6.41,3.487 9.378,7.016 10.218,10.633c0.614,2.643 0.076,5.282 -0.922,7.87c-1.082,2.808 -2.71,5.552 -4.2,8.18c-1.414,2.496 -2.706,4.896 -3.395,7.146c-1.18,3.854 -0.751,7.326 3.166,10.263c2.718,2.039 6.65,3.98 10.118,4.22c0.826,0.056 1.542,-0.568 1.599,-1.394c0.057,-0.826 -0.567,-1.542 -1.393,-1.599c-2.93,-0.202 -6.227,-1.904 -8.524,-3.627c-2.659,-1.994 -2.899,-4.367 -2.097,-6.984c0.632,-2.064 1.839,-4.256 3.136,-6.545c1.562,-2.755 3.255,-5.638 4.389,-8.581c1.22,-3.162 1.795,-6.397 1.045,-9.628c-0.979,-4.216 -4.233,-8.524 -11.706,-12.589c-12.628,-6.869 -29.669,-3.913 -43.137,-1.834c-4.823,0.744 -9.58,1.738 -14.289,3.015c-1.86,0.504 -3.86,0.888 -5.607,1.73c-0.051,0.025 -1.002,0.656 -1.429,1.043c-0.31,0.281 -0.469,0.562 -0.53,0.708c-0.243,0.586 -0.1,1.052 0.103,1.386c0.175,0.286 0.445,0.552 0.902,0.676c0.647,0.177 1.312,-0.099 1.657,-0.636Zm0.129,-1.37c-0.135,-0.408 -0.433,-0.734 -0.996,-0.888c0.47,0.129 0.827,0.468 0.996,0.888Z"/><path d="M174.946,103.176c-0.901,0.152 -2.008,0.786 -3.18,1.93c-1.398,1.363 -3.004,3.496 -4.678,6.081c-6.293,9.716 -13.689,25.942 -15.089,29.857c-3.808,10.653 -12.482,37.209 -13.027,57.533c-0.242,9.059 1.173,16.905 5.11,21.773c6.249,7.727 15.376,9.845 24.795,12.419c8.804,2.406 17.869,5.27 24.621,14.561c0.717,0.986 1.615,2.19 2.258,3.48c0.524,1.053 0.904,2.16 0.675,3.232c-0.062,0.287 -0.134,0.51 -0.308,0.627c-0.199,0.133 -0.464,0.128 -0.762,0.103c-0.466,-0.039 -0.987,-0.181 -1.549,-0.388c-5.307,-1.954 -13.48,-9.371 -14.801,-10.586c-0.61,-0.561 -1.559,-0.521 -2.12,0.088c-0.56,0.609 -0.521,1.559 0.089,2.119c1.405,1.293 10.15,9.115 15.795,11.194c1.891,0.697 3.526,0.744 4.657,0.173c0.919,-0.465 1.633,-1.303 1.932,-2.702c0.3,-1.399 0.061,-2.852 -0.499,-4.255c-0.716,-1.793 -1.964,-3.506 -2.94,-4.849c-7.22,-9.935 -16.843,-13.118 -26.257,-15.691c-8.798,-2.404 -17.417,-4.194 -23.254,-11.412c-4.813,-5.952 -5.185,-16.82 -3.765,-28.621c2.202,-18.286 8.959,-38.791 12.175,-47.789c1.371,-3.834 8.62,-19.721 14.782,-29.235c1.528,-2.36 2.979,-4.32 4.255,-5.565c0.611,-0.596 1.114,-1.04 1.583,-1.119c0.817,-0.138 1.368,-0.912 1.23,-1.728c-0.138,-0.817 -0.912,-1.368 -1.728,-1.23Z"/><path d="M131.998,199.479c-6.328,2.778 -14.331,3.636 -20.949,5.811c-13.232,4.348 -39.789,13.492 -60.175,25.822c-13.929,8.425 -24.931,18.412 -27.315,29.263c-1.234,5.62 -0.485,9.964 1.54,13.341c2.015,3.358 5.329,5.78 9.406,7.492c11.415,4.796 29.003,3.965 37.889,4.787c11.617,1.075 23.343,2.804 34.757,5.218c8.18,1.731 27.597,7.856 35.481,10.939c0.771,0.301 1.642,-0.08 1.943,-0.851c0.302,-0.771 -0.08,-1.642 -0.851,-1.943c-7.988,-3.124 -27.664,-9.326 -35.953,-11.08c-11.526,-2.438 -23.369,-4.185 -35.101,-5.27c-8.675,-0.803 -25.859,0.117 -37.003,-4.566c-3.445,-1.447 -6.293,-3.432 -7.995,-6.27c-1.692,-2.82 -2.214,-6.46 -1.183,-11.154c2.244,-10.215 12.824,-19.408 25.937,-27.339c20.176,-12.202 46.464,-21.236 59.56,-25.539c6.705,-2.203 14.807,-3.099 21.218,-5.914c0.758,-0.333 1.103,-1.219 0.771,-1.977c-0.333,-0.758 -1.219,-1.103 -1.977,-0.77Z"/><path d="M181.524,307.675c8.343,-8.391 17.09,-19.563 21.933,-31.722c4.936,-12.395 5.831,-25.802 -1.636,-38.412c-5.758,-9.723 -18.083,-16.009 -27.188,-23.543c-5.083,-4.206 -9.137,-8.803 -10.04,-14.849c-0.602,-4.024 0.206,-8.662 2.928,-14.216c2.516,-5.132 6.62,-11.852 11.739,-14.877c0.713,-0.421 0.95,-1.342 0.528,-2.055c-0.421,-0.712 -1.341,-0.949 -2.054,-0.528c-5.583,3.299 -10.163,10.544 -12.906,16.139c-3.057,6.237 -3.878,11.462 -3.202,15.98c1.011,6.768 5.405,12.01 11.094,16.717c4.506,3.728 9.82,7.135 14.721,10.811c4.717,3.538 9.056,7.318 11.798,11.949c6.954,11.743 6.027,24.232 1.43,35.774c-4.691,11.78 -13.189,22.588 -21.273,30.717c-0.584,0.587 -0.581,1.538 0.006,2.121c0.587,0.584 1.538,0.581 2.122,-0.006Z"/><path d="M99.263,255.895c1.247,-0.32 4.108,-0.454 4.348,-0.454c3.115,0.005 6.268,0.491 9.355,0.865c0.501,0.061 1.003,0.118 1.504,0.183c15,1.931 28.038,8.898 42.414,12.874c2.334,0.646 6.9,0.818 9.767,0.029c1.686,-0.464 2.829,-1.338 3.232,-2.34c0.297,-0.737 0.311,-1.607 -0.212,-2.606c-0.479,-0.916 -1.55,-2.066 -3.509,-3.386c-0.686,-0.462 -1.619,-0.28 -2.082,0.407c-0.462,0.686 -0.28,1.619 0.406,2.082c0.827,0.556 1.458,1.058 1.916,1.517c0.259,0.26 0.455,0.496 0.583,0.719c0.026,0.047 0.054,0.112 0.073,0.161c-0.157,0.096 -0.665,0.395 -1.072,0.516c-2.383,0.706 -6.313,0.56 -8.303,0.01c-14.512,-4.014 -27.686,-11.009 -42.83,-12.959c-0.508,-0.065 -1.018,-0.124 -1.527,-0.185c-3.204,-0.388 -6.477,-0.882 -9.711,-0.887c-0.297,-0 -3.966,0.204 -5.35,0.618c-1.413,0.423 -1.631,1.536 -1.515,2.076c0.173,0.809 0.971,1.326 1.781,1.152c0.286,-0.061 0.536,-0.201 0.732,-0.392Zm0.446,-1.227l0.003,0.036l-0.002,-0.027l-0.001,-0.009Zm-0.008,-0.06l0.005,0.036l-0.003,-0.024l-0.002,-0.012Z"/><path d="M350.449,282.655c-0.283,0.189 -0.648,0.443 -0.793,0.594c-2.145,2.228 -4.703,4.105 -7.16,5.965c-8.681,6.572 -18.502,10.767 -28.742,14.246c-24.574,8.35 -49.113,9.249 -74.614,6.014c-4.292,-0.545 -9.421,0.04 -13.576,-1.345c-0.785,-0.262 -1.635,0.163 -1.897,0.948c-0.262,0.786 0.163,1.636 0.949,1.898c4.332,1.444 9.671,0.907 14.147,1.475c25.96,3.294 50.939,2.351 75.956,-6.149c10.546,-3.583 20.648,-7.927 29.588,-14.695c2.569,-1.945 5.233,-3.919 7.479,-6.245c0.078,-0.048 0.78,-0.487 1.013,-0.693c0.307,-0.271 0.477,-0.567 0.56,-0.812c0.113,-0.332 0.114,-0.654 0.028,-0.963c-0.093,-0.329 -0.288,-0.696 -0.761,-0.982c-0.708,-0.429 -1.631,-0.203 -2.06,0.505c-0.047,0.077 -0.086,0.157 -0.117,0.239Zm0.243,1.493c0.076,0.098 0.174,0.191 0.301,0.277c-0.115,-0.08 -0.216,-0.173 -0.301,-0.277Z"/><path d="M211.825,307.906c0.564,0.435 1.377,0.418 1.923,-0.077c0.613,-0.556 0.66,-1.506 0.104,-2.119c-0.202,-0.223 -0.548,-0.477 -1.079,-0.653c-0.566,-0.188 -1.515,-0.338 -2.735,-0.428c-6.055,-0.449 -19.746,0.297 -22.357,0.156c-0.827,-0.045 -1.534,0.59 -1.579,1.417c-0.045,0.826 0.59,1.534 1.417,1.579c2.287,0.123 13.065,-0.433 19.784,-0.273c1.484,0.035 2.761,0.104 3.682,0.23c0.336,0.045 0.722,0.138 0.84,0.168Z"/><path d="M203.113,283.207l-0.028,-0.013c-0.764,-0.321 -1.644,0.038 -1.965,0.801c-0.255,0.605 -0.148,1.061 -0.005,1.379c0.162,0.359 0.432,0.648 0.843,0.825c0.242,0.104 0.614,0.184 1.08,0.122c0.519,-0.069 1.435,-0.427 1.912,-0.518c2.308,-0.439 4.545,-1.2 6.783,-1.902c0.79,-0.247 1.231,-1.09 0.983,-1.88c-0.248,-0.79 -1.09,-1.23 -1.88,-0.983c-2.128,0.667 -4.253,1.4 -6.447,1.818c-0.264,0.051 -0.86,0.225 -1.276,0.351Zm0.795,1.895l-0.023,0.057c0.008,-0.02 0.016,-0.038 0.023,-0.057Z"/><path d="M212.286,267.391c1.075,0.205 2.135,0.439 3.176,0.783c2.571,0.849 5.173,1.992 7.004,4.039c0.552,0.617 1.501,0.669 2.118,0.117c0.617,-0.552 0.67,-1.501 0.118,-2.118c-2.182,-2.438 -5.236,-3.876 -8.3,-4.887c-1.173,-0.387 -2.367,-0.655 -3.579,-0.886c-0.045,-0.009 -0.151,-0.021 -0.262,-0.033c-0.286,-0.123 -0.613,-0.158 -0.938,-0.08c-0.867,0.208 -1.052,0.765 -1.119,0.929c-0.19,0.472 -0.156,0.932 0.128,1.377c0.115,0.179 0.335,0.459 0.783,0.618c0.126,0.044 0.755,0.126 0.871,0.141Zm0.729,-0.529c-0.186,0.182 -0.422,0.317 -0.694,0.382c0.338,-0.081 0.554,-0.229 0.694,-0.382Z"/><path d="M205.928,230.971c0.346,-0.023 1.102,-0.074 1.173,-0.07c2.105,0.119 4.222,0.542 6.294,0.909c5.713,1.012 11.669,2.987 16.668,5.987c0.71,0.426 1.632,0.195 2.058,-0.515c0.426,-0.71 0.196,-1.632 -0.514,-2.058c-5.307,-3.184 -11.624,-5.294 -17.689,-6.368c-2.188,-0.387 -4.426,-0.825 -6.648,-0.95c-0.134,-0.007 -1.38,0.016 -1.988,0.115c-0.474,0.078 -0.793,0.26 -0.934,0.368c-0.387,0.299 -0.534,0.663 -0.584,0.988c-0.06,0.395 -0.003,0.842 0.392,1.27c0.463,0.501 1.19,0.615 1.772,0.324Zm0.491,-2.291c0.241,0.294 0.353,0.655 0.338,1.012c0.032,-0.328 -0.05,-0.672 -0.338,-1.012Z"/><path d="M91.09,323.279c-0.319,9.558 -0.067,20.076 -0.001,29.641c0.006,0.828 0.683,1.496 1.511,1.49c0.828,-0.006 1.495,-0.683 1.489,-1.511c-0.066,-9.525 -0.319,-20 -0.001,-29.52c0.028,-0.827 -0.621,-1.521 -1.449,-1.549c-0.827,-0.027 -1.521,0.622 -1.549,1.449Z"/><path d="M91.896,354.24c16.17,8.421 75.838,35.796 87.785,43.057c0.707,0.43 1.631,0.205 2.061,-0.503c0.43,-0.707 0.204,-1.631 -0.503,-2.06c-11.971,-7.276 -71.754,-34.717 -87.957,-43.155c-0.734,-0.382 -1.641,-0.096 -2.023,0.638c-0.383,0.734 -0.097,1.641 0.637,2.023Z"/><path d="M182.179,395.978c-0.348,-14.164 -0.23,-28.882 -0,-43.044c0.013,-0.828 -0.648,-1.511 -1.476,-1.524c-0.827,-0.013 -1.51,0.648 -1.524,1.475c-0.23,14.202 -0.349,28.962 0.001,43.167c0.02,0.828 0.708,1.483 1.536,1.463c0.828,-0.02 1.483,-0.709 1.463,-1.537Z"/><path d="M181.288,397.266c14.633,-9.696 29.236,-20.344 43.272,-30.559c0.669,-0.488 0.817,-1.427 0.33,-2.096c-0.487,-0.669 -1.426,-0.817 -2.096,-0.33c-14,10.19 -28.567,20.812 -43.163,30.484c-0.69,0.457 -0.879,1.389 -0.422,2.079c0.458,0.69 1.389,0.879 2.079,0.422Z"/><path d="M225.184,365.48c-0.091,-9.982 0.757,-21.671 1.079,-31.645c0.027,-0.827 -0.623,-1.521 -1.451,-1.547c-0.827,-0.027 -1.521,0.623 -1.548,1.45c-0.323,10.013 -1.171,21.748 -1.08,31.769c0.007,0.828 0.686,1.494 1.513,1.487c0.828,-0.008 1.494,-0.686 1.487,-1.514Z"/><path d="M181.317,354.268c13.891,-6.524 29.963,-12.999 44.044,-19.105c0.759,-0.33 1.108,-1.214 0.779,-1.973c-0.33,-0.76 -1.214,-1.109 -1.973,-0.779c-14.106,6.117 -30.208,12.606 -44.126,19.141c-0.749,0.352 -1.072,1.246 -0.72,1.995c0.352,0.75 1.246,1.072 1.996,0.721Z"/><path d="M93.454,324.053c13.241,5.454 27.001,9.548 40.528,14.227c15.407,5.329 30.673,11.242 46.254,16.063c0.791,0.244 1.631,-0.199 1.876,-0.99c0.245,-0.791 -0.199,-1.632 -0.99,-1.876c-15.549,-4.811 -30.783,-10.714 -46.159,-16.033c-13.473,-4.66 -27.179,-8.733 -40.367,-14.165c-0.765,-0.315 -1.643,0.05 -1.958,0.816c-0.315,0.765 0.05,1.643 0.816,1.958Z"/><path d="M93.928,323.771c3.817,-2.142 16.98,-8.602 20.747,-10.831c0.712,-0.421 0.949,-1.342 0.527,-2.054c-0.422,-0.713 -1.342,-0.949 -2.055,-0.528c-3.756,2.223 -16.881,8.661 -20.687,10.797c-0.722,0.405 -0.979,1.32 -0.574,2.042c0.405,0.722 1.32,0.979 2.042,0.574Z"/><path d="M121.385,320.174c-0.189,-0.179 -0.507,-0.491 -0.724,-0.763c-1.156,-1.448 -2.392,-3.634 -2.84,-4.381c-0.223,-0.372 -0.437,-0.75 -0.67,-1.116c-0.678,-1.066 -1.121,-1.914 -1.628,-3.053c-0.201,-0.452 -2.406,-3.936 -3.535,-5.761c0.543,-0.366 1.237,-0.822 1.456,-0.916c4.577,-1.961 7.745,-2.317 10.127,-1.58c1.673,0.518 2.909,1.582 3.974,2.873c1.208,1.465 2.198,3.215 3.248,4.927c2.677,4.363 5.741,8.414 12.385,8.414c0.828,0 1.5,-0.672 1.5,-1.5c0,-0.827 -0.672,-1.5 -1.5,-1.5c-3.92,0 -6.206,-1.87 -7.999,-4.24c-1.35,-1.784 -2.443,-3.834 -3.657,-5.706c-1.727,-2.661 -3.71,-4.956 -6.685,-6.008c-2.904,-1.027 -6.836,-0.897 -12.575,1.563c-0.418,0.179 -1.683,0.894 -2.506,1.52c-0.547,0.416 -0.919,0.854 -1.061,1.137c-0.027,0.054 -0.365,0.742 0.146,1.617c0.593,1.014 3.706,5.85 3.941,6.378c0.571,1.286 1.072,2.243 1.838,3.445c0.219,0.345 0.419,0.7 0.629,1.05c0.673,1.122 2.998,5.081 4.505,6.159c1.037,0.742 1.982,0.644 2.657,0.13c0.659,-0.502 0.787,-1.444 0.285,-2.103c-0.32,-0.42 -0.82,-0.625 -1.311,-0.586Z"/><path d="M134.005,310.762c0.769,-0.416 2.437,-1.342 3.013,-1.846c2.291,-2.004 4.428,-3.99 6.571,-6.133c1.648,-1.648 11.554,-9.654 18.222,-13.73c1.366,-0.836 2.589,-1.504 3.563,-1.896c0.338,-0.136 0.769,-0.241 0.976,-0.287c0.348,0.335 0.663,0.945 1.025,1.725c0.835,1.795 1.654,4.406 2.44,7.484c3.133,12.269 5.654,31.797 5.654,37.702c0,0.828 0.672,1.5 1.5,1.5c0.828,-0 1.5,-0.672 1.5,-1.5c0,-6.021 -2.553,-25.934 -5.748,-38.445c-0.989,-3.872 -2.053,-7.052 -3.105,-8.956c-0.581,-1.051 -1.202,-1.766 -1.779,-2.151c-0.38,-0.253 -0.894,-0.416 -1.553,-0.38c-0.765,0.041 -1.898,0.406 -3.258,1.082c-6.511,3.24 -19.61,13.783 -21.558,15.731c-2.096,2.095 -4.186,4.037 -6.426,5.997c-0.665,0.582 -2.739,1.595 -3.015,1.766c-0.982,0.609 -0.724,1.572 -0.69,1.694c0.018,0.066 0.69,1.561 2.25,0.906c0.157,-0.065 0.297,-0.155 0.418,-0.263Z"/><path d="M121.321,323.18l0.499,0.25c3.331,1.466 6.669,2.943 10.065,4.255c7.531,2.91 15.353,5.15 23.22,6.943c7.145,1.629 16.998,4.317 24.324,2.206c4.747,-1.368 6.662,-4.496 6.442,-7.198c-0.222,-2.727 -2.645,-5.446 -7.349,-5.917c-0.824,-0.082 -1.559,0.52 -1.642,1.343c-0.082,0.824 0.52,1.56 1.344,1.642c2.81,0.281 4.524,1.547 4.657,3.175c0.135,1.653 -1.379,3.235 -4.282,4.072c-6.88,1.982 -16.117,-0.718 -22.827,-2.248c-7.727,-1.761 -15.41,-3.959 -22.806,-6.816c-3.338,-1.29 -6.619,-2.742 -9.894,-4.183c-0.139,-0.073 -0.67,-0.348 -0.931,-0.434c-0.315,-0.104 -0.584,-0.11 -0.753,-0.093c-0.736,0.074 -1.117,0.502 -1.298,1.011c-0.278,0.779 0.129,1.638 0.909,1.916c0.106,0.038 0.214,0.063 0.322,0.076Zm1.139,-0.334c0.213,-0.169 0.362,-0.39 0.456,-0.651c-0.094,0.264 -0.255,0.485 -0.456,0.651Z"/><path d="M224.787,332.281c-0.255,-0.068 -1.846,-0.494 -3.774,-1.093c-10.072,-3.128 -35.515,-11.757 -44.864,-15.816c-0.759,-0.33 -1.643,0.019 -1.973,0.779c-0.33,0.759 0.019,1.643 0.778,1.973c10.597,4.6 41.714,15.033 48.218,16.84c0.911,0.253 1.489,0.329 1.647,0.32c0.344,-0.019 0.573,-0.131 0.719,-0.218c0.709,-0.427 0.938,-1.35 0.511,-2.059c-0.277,-0.46 -0.762,-0.718 -1.262,-0.726Z"/></g></svg>